<svg width="508" height="959" viewBox="0 0 508 959" fill="none" xmlns="http://www.w3.org/2000/svg">

<g id="chungbug">
<path id="chungbug_st" d="M189.161 343.976C181.983 363.783 179.425 364.519 197.671 383.353C198.83 384.55 199.943 385.797 201.161 386.93C207.717 393.032 211.608 400.611 213.721 409.221C214.554 412.611 215.437 415.998 216.508 419.318C220.285 431.026 223.218 443.128 230.227 453.485C237.332 463.985 252.424 466.771 261.47 459.603C272.821 450.607 274.037 437.111 264.107 426.772C257.278 419.662 252.593 411.577 252.101 401.674C251.523 390.048 251.039 378.374 253.806 366.879C257.601 351.11 266.269 339.161 280.879 331.679C288.512 327.77 296.659 325.496 304.896 323.394C315.901 320.586 325.806 316.042 333.397 307.024C340.628 298.435 347.006 288.991 357.363 282.347C341.056 278.682 327.206 271.265 312.748 265.357C302.86 261.317 292.341 259.011 281.504 260.411C273.252 261.478 265.162 263.493 257.18 265.872C248.656 268.413 243.23 268 231.149 266.213C224.346 279.206 213.756 287.947 202.209 295.73C196.829 299.356 191.515 303.078 186.116 306.674C182.734 308.926 181.853 311.192 184.73 314.739C191.639 323.258 191.656 333.076 189.161 343.976Z" fill="white"/>
</g>

<g id="jeju">
<path id="jeju_st" d="M61.7633 901.073C50.7636 907.897 42.1932 916.554 40.1036 930.497C40.0607 932.106 40.0483 933.272 40.011 934.438C39.5296 949.49 54.8757 961.744 69.4487 957.722C78.8496 955.128 88.4163 954.436 98.0833 954.163C117.927 953.603 136.359 948.969 153.096 937.449C168.935 926.548 169.257 905.633 162.532 891.932C156.077 876.173 138.693 871.064 106.693 885.564C92.9265 891.802 73.0635 895.749 61.7633 901.073Z" fill="white"/>
</g>

<g id="gyeongbug">
<path id="gyeongbug_st" d="M487.189 386.502C489.179 362.246 487.15 338.273 487.189 313.948C487.239 301.312 485.764 277.62 480.5 269C474.067 273.251 455.627 279.486 448.788 281.821C428.097 288.886 406.741 289.425 385.564 286.641C372.848 284.969 363.521 288.18 355.545 297.429C352.391 301.086 349.051 304.612 346.188 308.487C336.655 321.395 324.099 329.446 308.435 332.8C304.697 333.601 300.992 334.612 297.339 335.744C284.774 339.638 274.806 346.669 268.202 358.481C263.251 367.336 262.699 376.911 262.172 386.502C261.395 400.633 262.851 414.084 274.953 424.108C278.668 427.186 280.673 431.975 281.147 436.924C282.311 449.068 277 458.5 269.5 468C266.862 473.94 267.334 486.681 270.5 489.5C272.491 491.596 277.361 496.396 283.095 499.525C295.504 504.311 307.643 514.607 312 528.5C312.833 530.303 318.2 538.652 331 538.652C344.52 538.652 347.128 542.509 363.475 545.071C382.883 548.113 401.357 549.01 418 537.5C429.552 529.511 444.559 523.965 458.636 527.348C469.595 529.983 480.638 541.422 491 523C495.5 515 499.189 494.215 502.689 478.948C504.638 470.155 515.5 451.5 497.5 451.5C486.689 442.5 483.734 416.923 487.189 386.502Z" fill="white"/>
</g>

<g id="metropolitan">
<path id="metropolitan_st" d="M79.9438 146.442C74.6785 154.528 64.1194 151.061 54.9438 148.442C41.9436 143.942 21.5 143.984 30.5 177.5C39.5 211.016 40.4439 208.442 60.4439 216.442C76.4439 222.842 81.1105 230.775 81.4439 233.942C88.9439 243.942 85.9439 267.942 99.9439 293.294C108.582 308.937 126.572 308.48 133.925 307.187C147.858 304.736 166.6 311.117 178.555 302.993C192.412 293.765 205.771 287.719 215.5 273.5C228.5 254.5 232.5 245.5 236.5 219.5C236.5 200 229.5 199.5 218 189.5C201.898 175.498 199.507 178.611 206.5 146.442C209.603 132.17 199 117 190 107C180.247 96.163 166.071 93.69 153.439 86.6335C147.323 83.2168 143.26 81.2381 140.444 74.4576C140.444 63.2703 133.777 69.1191 130.444 73.4419C119.444 87.442 112.328 99.0285 102.944 113.942C96.2081 124.646 86.8413 135.848 79.9438 146.442Z" fill="white"/>
</g>

<g id="jeonbug">
<path id="jeonbug_st" d="M217.445 559.286C218.091 553.345 218.405 547.343 219.455 541.473C221.467 530.226 225.099 519.618 232.838 510.775C237.365 505.602 242.944 501.61 247.781 496.807C251.975 492.641 255.092 489.17 254.5 483.5C254.376 482.313 255 479.5 252.5 478C246.5 476.5 237.745 477.519 230.959 474.044C228.893 472.986 227.68 473.845 226.15 475.137C214.166 485.258 205.363 485.965 192.191 477.569C183.894 472.281 175.517 467.256 166.311 463.644C146.511 455.875 128.306 457.325 111.928 472.03C107.617 475.9 102.755 479.23 97.8446 482.33C95.2185 483.988 94.5541 485.653 95.2958 488.459C98.4877 500.534 95.6078 511.422 88.8684 521.636C79.8863 535.248 69.819 548.087 60.6074 561.548C55.1755 569.485 54.0287 575.754 59.9849 583.803C65.3857 591.102 67.5745 592.365 75.2956 587.211C81.6534 582.968 87.5873 578.094 93.7783 573.595C101.397 568.057 109.447 566.986 118.24 570.938C126.593 574.691 133.334 580.621 140.191 586.392C148.566 593.442 157.846 596.36 168.855 594.804C183.69 592.708 203.443 598.487 213.928 594.497C217.996 582.487 216.737 571.448 217.445 559.286Z" fill="white"/>
</g>

<g id="gyeongnam">
<path id="gyeongnam_st" d="M260 501C273 501 278.142 508.155 286.755 513.069C292.832 516.155 296.944 520.282 298.994 525.973C303.9 539.589 313.64 545.441 327.847 546.372C339.082 547.108 356.023 551.75 367.19 553.5C389.5 553.5 389.5 556.5 410 546.372C416.721 541.723 425.587 534.476 434 533.5C439.324 532.882 451.04 532.308 456 533.5C461.326 534.78 470.75 539.389 476 541C482.921 547.225 469.5 572 462.5 587C451 603.5 457.933 598.629 437.5 620.5C426.422 632.445 410 636 391.5 642C379 650 376.943 643.724 373.5 669.741C373.072 674.872 370.329 680.916 369.5 686C368.167 694.168 359.681 691.043 352 688C339.623 683.096 337.299 681.606 325 676.5C321.013 674.845 314.659 670.87 310.5 669.741C300.772 667.102 290.397 670.784 287 680.248C279.131 702.168 260.027 695 255.57 680.248L255.202 679.029C246.826 651.299 244.717 644.319 234.68 628.708C231.421 623.64 228.888 618.489 227.232 613.13C224.993 605.888 224.357 598.265 225.697 589.953C227.941 576.027 228.451 561.823 229.748 547.743C231.066 533.441 236.114 521.004 247.464 511.554C251.898 507.862 251.5 506.5 260 501Z" fill="white"/>
</g>

<g id="jeonnam">
<path id="jeonnam_st" d="M8.96535 728.978C10.3281 731.831 11.6409 734.71 13.0645 737.532C15.6792 742.716 19.1372 747.401 24.6539 749.47C38.6123 754.706 53.0366 757.738 68.0683 756.652C82.7323 755.592 95.4836 748.908 108.38 742.696C119.648 737.27 131.075 732.363 143.507 730.117C156.963 727.686 170.051 730.821 183.126 732.8C203.22 735.843 214.889 730.832 224.879 713.464C227.286 709.279 230.512 708.585 233 704.448C236.048 699.379 250.5 698.948 255 699.948C249 688.948 246.5 692.948 242.5 672C239.925 658.513 240 660 233 646C225.5 628.5 220.008 624.971 217.5 613.948C215.873 606.796 211.798 606.066 205 604.948C195.353 603.362 183.574 602.387 174 603.448C162.68 604.703 152.842 605.441 143.542 598.394C137.051 593.476 131.486 587.411 124.212 583.448C115.216 578.547 111.508 578.721 103.271 584.935C96.9068 589.736 91.2767 595.524 84.0546 599.182C73.1639 604.699 64.7937 602.133 58.8696 591.487C57.7939 589.554 57.52 586.951 54.9629 586.055C52.833 586.966 52.192 588.976 51.2511 590.669C35.6424 618.747 20.8907 647.277 6.79891 676.141C3.31916 683.268 0.0628737 690.52 0.00102974 698.889C-0.0786363 709.67 4.47773 718.881 8.96535 728.978Z" fill="white"/>
</g>

<g id="chungnam">
<path id="chungnam_st" d="M36.306 380.919C27.6399 375.951 16.806 373.919 10.1239 360.067C3.03288 339.419 7.98092 322.908 25.306 303.419C33.1018 294.65 45.806 278.419 60.306 278.419C68.806 278.419 82.2705 274.96 86.806 287.919C90.306 297.919 101.188 308.628 114.033 311.919C127.628 315.403 147.811 311.424 153.533 310.419C172.97 307.004 191.033 329.419 174.533 357.919C170.986 373.29 194.406 390.419 202.533 410.419C212.533 436.919 230.533 463.419 220.033 469.419C209.533 475.419 194.779 466.024 187.033 461.419L169.033 453.919C160.033 448.499 142.879 449.173 127.533 453.919C118.223 456.798 110.624 459.74 103.033 465.419C91.5477 480.53 84.1787 465.351 83.0329 457.339C76.6657 435.796 69.6092 425.562 63.5329 403.919C60.0918 391.662 50.306 388.944 36.306 380.919Z" fill="white"/>
</g>

<g id="gangwon">
<path id="gangwon_st" d="M404.413 277C425.59 279.784 441.721 273.565 462.413 266.5C468.617 264.167 484.403 254.4 475.913 238C471.555 226.981 464.031 219.894 458.413 209.5C440.393 176.157 424.453 150.157 402.361 119.505C383.636 93.5263 368.75 65.5995 357.505 35.6566C353.997 26.3163 348.074 15.1319 341.54 7.33826C332.463 -3.15798 321.04 -2.16181 314.54 8.83821C306.54 22.3767 308.373 34.5 298.873 48C289.568 61.223 277.828 61.5 252.328 61.5C238.029 60.6877 213.328 61.4999 181.828 62.5C154.828 63.3572 125.506 65.0351 162.272 84.5C179.272 93.5 194.96 98.5 212.828 123.5C220.99 138.152 212.828 160.5 212.828 172.5C212.828 187.805 263.328 180 243.413 231.5C230.588 264.666 247.196 262.255 270.913 252.5C278.896 250.121 290.621 250.351 298.873 249.284C309.711 247.884 321.025 254.96 330.913 259C345.371 264.908 359.106 271.201 375.413 274.866C378.829 275.602 391.286 275.851 404.413 277Z" fill="white"/>
</g>

</svg>
