<svg width="825" height="751" viewBox="0 0 825 751" fill="none" xmlns="http://www.w3.org/2000/svg">

<g id="total_chungnam">
<path id="detail_chungnam" d="M152.29 339.42C151.78 347.81 151.88 357.47 153.29 369.42C153.94 374.92 155.06 382.56 159.29 400.42C167.61 435.58 171.89 442.43 167.29 448.42C162.11 455.16 149.31 456.11 140.29 452.42C121.35 444.66 116.9 415.5 114.29 398.42C108.53 360.68 119.41 343.83 106.29 330.42C96.1701 320.08 82.8401 322.96 79.2901 312.42C76.2401 303.37 85.6101 298.97 85.2901 283.42C85.0901 273.38 80.9901 265.86 75.2901 255.42C69.1701 244.2 66.1101 238.59 60.2901 236.42C50.7201 232.86 37.8101 239.57 27.2901 251.42C25.4001 252.4 11.5701 259.42 6.29006 254.42C4.19006 252.43 3.87006 248.96 7.29006 232.42C11.6601 211.28 13.1501 212.32 13.2901 206.42C13.7301 187.81 -1.23994 183.62 1.29006 170.42C3.64006 158.14 17.8601 159.97 24.2901 143.42C29.8401 129.13 23.9101 121.01 30.2901 111.42C37.7201 100.25 51.8201 108.89 60.2901 98.42C67.8801 89.03 61.3601 77.95 71.2901 68.42C72.8001 66.97 77.4001 62.56 82.2901 63.42C90.0001 64.78 94.1301 78.49 95.2901 87.42C98.6101 113.03 81.1701 128.14 88.2901 137.42C93.1101 143.7 104.97 141.79 107.29 141.42C129.12 137.9 148.98 109.56 144.29 88.42C139.11 65.08 106.59 62.17 107.29 44.42C107.73 33.31 120.96 22.06 133.29 20.42C150.17 18.17 157.93 34.91 171.29 31.42C185.1 27.82 181.88 8.58004 195.29 2.42004C211.75 -5.14996 226.96 19.07 272.29 36.42C304.47 48.74 308.04 40.83 326.29 52.42C359.13 73.27 352.52 101.48 377.29 112.42C379.68 113.48 381.9 114.15 384.17 114.45C412.94 118.34 436.05 104.74 459.29 92.42C502.34 69.58 529.13 55.38 553.79 63.92C569.82 69.47 569.61 79.32 607.79 102.92C626.55 114.51 626.3 111.95 635.79 118.92C672.25 145.7 686.28 194.2 676.79 201.92C672.62 205.31 666.12 199.02 657.79 203.92C651.19 207.8 651.95 213.7 643.79 219.92C640.59 222.36 635.57 226.18 629.79 225.92C620.12 225.48 617.88 214.02 600.79 197.92C593.81 191.34 588.57 186.39 579.79 182.92C576.17 181.49 563.36 176.65 547.79 180.92C536.3 184.07 529.23 190.56 527.79 191.92C519.68 199.58 516.31 207.52 511.79 218.92C506.9 231.27 504.29 243.83 502.46 252.67C501.78 255.95 501.19 259.4 499.79 264.92C492.7 292.94 490.83 291.58 490.29 301.42C490.05 305.82 488.49 337.39 509.29 358.42C523.61 372.89 533.92 368.95 541.29 382.42C549.75 397.88 538.42 407.2 546.29 421.42C555.96 438.9 577.25 432.31 587.29 450.42C593.07 460.85 591.33 472.62 589.29 486.42C586.18 507.42 579.1 509.47 579.29 523.42C579.36 528.51 580.36 533.03 598.29 563.42C618.4 597.52 623.13 601.99 630.29 604.42C631.57 604.85 646.66 609.74 658.29 602.42C665.43 597.92 664.93 592.81 670.29 591.42C680.18 588.85 685.46 605.31 702.29 609.42C714.5 612.41 727.94 607.7 736.29 601.42C748.97 591.87 746.81 580.99 758.29 576.42C766.02 573.34 776.38 575.29 783.29 580.42C797.92 591.29 789.02 610.67 802.08 649.88C804.76 657.93 805.25 656.25 812.29 676.42C821.71 703.41 826.57 716.95 821.29 723.42C817.03 728.65 808.73 729.24 806.29 729.42C796.61 730.12 794.47 724.78 787.29 725.42C776.7 726.36 776.72 738.51 762.29 745.42C760.24 746.4 746.25 753.09 735.29 747.42C725.7 742.46 726.68 732.31 717.29 729.42C710.32 727.28 707.6 732.2 700.29 731.42C685.19 729.81 675.65 706.6 672.29 698.42C662.22 673.93 668.51 663.13 658.29 655.42C649.38 648.7 633.93 648.83 625.29 655.42C617.83 661.11 619.23 669.76 611.29 673.42C603.72 676.91 597.65 671.26 587.29 670.42C571.41 669.14 569.48 683.05 552.29 685.42C542.27 686.8 527.66 684.7 520.29 675.42C512.24 665.28 520.2 655.82 513.29 644.42C504.59 630.07 482.24 628.99 470.29 628.42C463.78 628.11 425.98 626.3 415.29 646.42C409.44 657.42 417.05 664.93 412.29 679.42C407.26 694.74 393.35 702.49 381.29 709.42C364.83 718.89 331.38 739.76 309.29 726.42C303.4 722.86 299.37 715.72 291.29 701.42C274.66 671.98 280.33 665.66 270.29 657.42C253.32 643.48 232.31 657.58 215.29 640.42C212.28 637.38 207.16 632.22 207.29 625.42C207.55 612.13 227.51 609.54 230.29 594.42C232 585.1 226.92 584.69 224.29 564.42C221.49 542.86 225.64 524.23 226.29 521.42C229.22 508.76 231.74 507.98 231.29 500.42C230.71 490.64 225.67 477.9 215.29 471.42C208.29 467.05 204.54 468.9 200.29 464.42C193.93 457.72 196.43 445.79 197.29 441.42C202.18 416.45 215.08 350.53 191.29 321.42C182.52 310.69 167.83 303.39 160.29 307.42C154.02 310.77 153.37 321.57 152.29 339.42Z" fill="white"/>
<path id="detail_saejong" d="M523.79 234.92C522.96 238.5 520.05 252.45 518.79 259.92C518.61 260.97 518.22 263.55 517.28 266.9C516.11 271.1 514.94 273.07 512.79 282.92C509.54 297.76 507.92 305.18 509.29 314.42C509.76 317.58 511.37 328.45 519.29 338.42C530.74 352.83 542.28 350.61 552.29 363.42C557.01 369.46 560.17 379.51 561.29 389.42C562.2 397.48 560.85 400.5 563.29 406.42C567.54 416.72 577.35 421.48 579.29 422.42C588.18 426.73 596.13 425.82 608.29 424.42C623.54 422.67 631.17 421.8 636.29 416.42C644.68 407.61 637.63 398.39 647.79 384.92C650.42 381.43 654.98 375.39 662.79 372.92C669.53 370.79 673.18 373.06 677.79 369.92C683.18 366.26 684.2 359.09 684.79 354.92C685.06 353 687.31 335.49 676.79 326.92C669.09 320.65 662.56 325.82 648.79 319.92C638.69 315.59 632.53 308.9 630.29 306.42C617.14 291.84 615.11 271.82 613.79 262.92C612.4 253.52 612.63 249.28 611.51 243.96C611.13 242.14 610.61 240.26 609.79 237.92C606.8 229.49 602.12 224.09 595.79 216.92C590.76 211.22 587.47 207.57 581.79 203.92C579.87 202.69 576.22 200.35 571.79 198.92C561.57 195.63 547.74 196.96 538.79 204.92C529.16 213.49 526.03 225.23 523.79 234.92Z" fill="white"/>
<path id="detail_daejun" d="M731.29 393.42C724.83 391.87 723.05 394.24 710.29 395.42C698.94 396.47 693.26 396.99 687.29 394.42C679.89 391.24 678.56 386.51 672.29 386.42C668.4 386.36 663.95 388.1 661.29 391.42C657.85 395.72 659.93 399.52 658.29 408.42C657.59 412.2 656.22 419.67 651.29 425.42C646.59 430.9 640.51 432.64 630.29 435.42C625.11 436.83 623.69 435.96 619.71 437.59C619.19 437.8 611.35 441.1 607.29 447.42C601.75 456.05 608.8 461.65 607.29 477.42C606.09 489.94 601.4 491.05 598.29 510.42C597.55 515.03 597.03 519.76 598.29 525.42C599.18 529.42 600.62 532.36 606.29 541.42C612.29 551.01 613.55 552.46 619.29 561.42C626.67 572.94 627.29 574.95 631.29 578.42C634.6 581.29 640.64 586.32 647.29 585.42C658.11 583.95 659.67 568.11 670.29 567.42C675 567.11 679.13 569.94 681.29 571.42C686.97 575.32 687.32 579.35 691.29 583.42C698.64 590.95 710.55 590.51 712.29 590.42C732.72 589.34 743.75 562.76 744.29 561.42C752.21 541.6 739.99 536.87 746.29 515.42C752.14 495.48 764.9 491.87 770.29 466.42C772.46 456.19 771.6 451.17 769.29 447.42C763.62 438.25 752.34 441.79 747.29 433.42C741.63 424.04 752.56 414.24 746.29 403.42C741.98 395.99 732.88 393.8 731.29 393.42Z" fill="white"/>
</g>
</svg>
