<svg width="1435" height="1284" viewBox="0 0 1435 1284" fill="none" xmlns="http://www.w3.org/2000/svg">
<g id="total_metropolitan">
<path id="detail_gyeonggi" d="M459.16 268.98C479.32 244.27 518.26 266.8 548.53 249.63C584.95 228.97 561.72 177.55 601.34 152.87C623.67 138.96 635.9 152.28 670.4 135.45C691.3 125.26 703.32 112.33 723.21 90.94C758.15 53.37 757.55 38.5 786.18 19.34C800.02 10.07 818.86 -2.53 838.99 1.92C855 5.46 864.56 18.47 883.68 44.49C897.1 62.75 904.18 77.2 924.3 96.74C933.58 105.75 939.32 109.71 946.64 110.29C961.32 111.44 964.83 87.6 983.2 85.13C989.27 84.31 998.34 85.42 1003.51 90.94C1014.11 102.23 997.88 120.8 1005.54 137.39C1012.39 152.21 1032.48 162.27 1046.16 158.68C1055.92 156.12 1055.35 148.49 1066.47 143.2C1080.27 136.64 1101.09 138.91 1113.19 149.01C1120.23 154.89 1121.18 160.8 1131.47 205.13C1138.46 235.25 1139.85 240.35 1145.69 243.83C1159.94 252.32 1177.18 237.12 1192.41 245.77C1201.98 251.2 1196.03 260.51 1206.63 272.86C1217.38 285.39 1226.97 281.39 1239.13 292.21C1258.04 309.05 1255.7 337.3 1255.38 340.59C1253.04 364.48 1237.16 379.41 1233.04 383.16C1213.12 401.32 1198.88 393.23 1188.35 408.32C1176.4 425.45 1181.75 454.51 1184.29 468.31C1186.41 479.81 1189.7 488.83 1184.29 497.34C1178.3 506.78 1165.48 509.49 1166.01 510.89C1166.77 512.89 1190.68 500.61 1202.57 508.95C1213.64 516.72 1209.79 539.18 1208.66 545.72C1205.2 565.9 1196.19 568.35 1196.47 582.49C1196.79 598.48 1208.74 617.12 1222.88 619.26C1239.64 621.79 1245.8 599.09 1265.54 597.97C1286.87 596.76 1291.37 622.62 1322.41 640.54C1362.97 663.96 1391.64 640.82 1415.85 663.76C1434.44 681.38 1439.35 715.71 1426.01 735.36C1410.9 757.61 1376.49 754.98 1373.2 772.13C1371.44 781.33 1381.52 783.75 1387.42 797.29C1400.31 826.85 1366.68 845.48 1365.08 894.05C1364.16 921.8 1374.68 929.49 1367.11 952.11C1360.86 970.78 1338.73 976.05 1340.7 988.88C1342.1 998.01 1352.26 998.31 1354.92 1008.23C1358.52 1021.68 1344.99 1040.17 1328.51 1048.87C1301.88 1062.93 1277.6 1046.11 1267.57 1058.55C1257.67 1070.82 1277.7 1091.72 1265.54 1106.93C1258.77 1115.41 1250.25 1111.8 1241.17 1122.41C1231.26 1133.98 1236.48 1144.02 1228.98 1149.5C1218.44 1157.2 1200.14 1143.21 1182.26 1139.82C1142.5 1132.28 1094.35 1161.83 1090.85 1188.2C1089.2 1200.64 1098.17 1207.16 1092.88 1217.23C1087.13 1228.19 1073.43 1226.34 1056.32 1234.65C1026.67 1249.04 1028.57 1273.63 1009.6 1281.1C991.83 1288.09 981.63 1267.8 930.38 1244.33C898.72 1229.83 882.88 1222.58 865.38 1224.98C832.4 1229.5 826.88 1257.47 796.32 1257.88C772.78 1258.2 768.9 1241.7 745.54 1242.4C716.08 1243.28 712.99 1270.99 684.6 1275.3C646.21 1281.12 604.94 1238.38 593.87 1226.92C572.49 1204.78 570.15 1190.8 549.18 1183.06C524.35 1173.88 504.44 1184.91 499.75 1176.61C494.21 1166.79 520.81 1149.22 538.34 1105.01C545.85 1086.07 543.77 1082.78 542.4 1081.79C532.58 1074.69 486.46 1132.84 461.15 1122.43C453.24 1119.18 457.82 1105.65 446.93 1099.21C437.35 1093.54 428.7 1100.39 422.56 1095.34C415.31 1089.39 423.08 1076.61 423.91 1055.99C425.18 1024.46 408.58 1015.21 416.46 1002.45C425.01 988.6 452.87 986.07 471.98 990.19C494.56 995.06 499.83 1008.1 516.67 1006.32C531.51 1004.75 547.66 992.47 546.46 983.1C543.69 961.44 450.73 968.59 442.87 940.53C441.05 934.01 444.18 924.95 481.46 892.15C544.84 836.39 552.3 826.87 564.74 828.29C581.72 830.23 591.29 844.5 609.43 839.9C621.09 836.94 622.38 829.71 629.74 830.22C646.5 831.39 646.24 869.31 670.36 884.41C677.55 888.91 677.78 884.94 729.27 884.41C762.68 884.07 767.35 885.47 777.51 881.02C794.26 873.69 794.77 864.08 812.55 858.77C817.28 857.36 833.86 852.4 847.59 859.74C860.93 866.87 856.23 877.39 870.95 887.32C881.48 894.42 893.72 895.66 907 897C917.5 898.06 922.74 898.59 928.84 897C938.88 894.38 941.37 889.3 961.85 871.36C972.84 861.73 978.47 856.84 984.7 853.46C992.41 849.28 999.76 847.07 1014.15 842.82C1036.77 836.14 1035.5 838.31 1041.06 835.56C1065.64 823.43 1069.81 791.28 1070.01 789.6C1070.71 783.48 1073.19 761.97 1060.87 753.31C1053.87 748.39 1045.71 750.17 1044.11 745.57C1042.42 740.72 1049.65 733.54 1055.79 729.6C1067.64 722.02 1075.31 726.66 1089.81 718.96C1095.85 715.75 1102.18 712.39 1103.52 706.38C1104.94 700.01 1099.53 696.24 1094.38 683.64C1093.14 680.62 1090.08 673.12 1089.3 664.77C1087.84 649.03 1095.87 644.74 1097.93 623.16C1098.71 615.02 1099.16 609.64 1096.91 602.84C1091.82 587.43 1077.92 580.07 1076.09 579.13C1062.86 572.37 1050.14 574.49 1042.57 575.74C1037.93 576.51 1028.09 578.26 1018.2 585.42C1008.93 592.12 1006.85 600.11 1005 599.45C1001.48 598.19 1009.15 570.26 1010.59 565.1C1017.4 540.7 1020.27 541.02 1019.22 534.14C1016.88 518.75 1002.89 519.3 992.81 495.92C988.75 486.5 989.61 483.15 984.18 475.12C976.26 463.43 970.23 464.33 967.42 456.25C965.93 451.97 966.88 449.56 974.02 423.84C978.24 408.65 978.43 407.6 978.08 405.46C975.52 389.76 954.34 380.95 948.12 378.37C935.6 373.16 924.54 372.72 919.68 372.56C907.15 372.16 904.88 374.82 883.12 376.91C868.28 378.34 860.74 379.01 854.68 376.91C840.26 371.91 839.07 360.75 830.81 360.94C824.17 361.09 822.33 368.37 805.93 393.35C789.51 418.35 784.12 422.07 783.08 433.99C782.36 442.28 784.39 447.1 780.54 450.44C774.61 455.59 761.39 451.43 750.58 448.02C735.37 443.23 732.45 438.99 726.21 440.76C718.73 442.88 720.34 449.7 709.96 457.69C704.28 462.06 697.88 464.15 685.08 468.33C671.84 472.66 669.72 471.79 665.78 475.1C663.05 477.39 659.86 481.35 657.15 497.84C655.21 509.59 654.56 521.37 655.12 537.51C655.74 555.48 661.44 561.04 657.15 565.57C651.06 572 638.62 564.49 629.22 572.34C622.49 577.97 624.62 585.37 619.57 586.85C614.88 588.23 609.42 582.93 597.23 570.4C576.72 549.31 577.23 548.92 571.84 544.27C561.09 535.02 546.31 522.31 533.75 526.37C529.13 527.86 526.12 532.57 520.04 541.85C516.17 547.76 510.5 556.41 507.34 568.94C504.01 582.16 506.75 586.72 501.75 593.13C498.59 597.18 491.73 603.7 485.5 602.32C477.98 600.66 479.83 589.42 467.73 575.23C461.36 567.77 454.65 563.61 451.48 561.68C447.73 559.4 434.67 551.47 421.52 551.52C396.21 551.61 391.51 581.19 364.65 583.45C346.01 585.02 332 572.17 330.63 570.87C325.76 566.27 318.26 556.83 316.92 522.97C314.98 474.16 329.52 467.73 322 437.82C316.53 416.07 305.25 405.21 311.84 395.73C313.93 392.73 318.74 388.51 342.31 387.51C385.99 385.65 403.84 398.66 418.48 389.45C423.32 386.4 426.24 376.07 432.19 355.58C441.17 324.68 440.22 311.05 451.99 283.49C455.46 275.37 457.2 271.31 459.1 268.98H459.16Z" fill="white"/>
<path id="detail_seoul" d="M1044.02 705.29C1043.89 705.38 1037.11 708.71 1025.54 717.83C1016.61 724.86 1014.79 726.64 1013.66 728.58C1011.05 733.04 1010.93 737.32 1010.85 739.46C1010.31 753.59 1020.84 764.11 1021.81 765.05C1031.13 774.1 1039.19 772.31 1041.38 779.32C1043.43 785.88 1038.11 792.98 1036.26 795.44C1032.14 800.93 1026.84 803.52 1022.97 805.42C1017.56 808.07 1013 809.07 1009.69 809.77C992.39 813.45 990.81 810.29 979.78 814.11C972.91 816.49 966.38 820.29 962.17 823.5C961.19 824.25 960.2 825.06 960.2 825.06C957.88 827.01 955.61 829.34 950.29 834.84C947.25 837.99 944.98 840.37 943.24 842.21C939.12 846.57 937.02 848.71 936.75 848.97C934.4 851.28 927.1 858.44 916.12 860.59C909.83 861.83 904.72 860.97 898.64 859.91C894.19 859.13 890.37 857.98 886.76 856.33C879.33 852.92 877.61 849.57 877.02 847.97C877.02 847.96 877.02 847.99 877.02 847.97C877.01 847.94 875.43 843.23 872.4 839.02C865.7 829.72 855.88 825.85 851.28 824.1C844.66 821.58 839.14 820.88 836.1 820.52C832.44 820.09 825.18 819.28 816.46 820.97C806.92 822.81 799.7 827.43 785.29 836.86C776.15 842.84 766.55 849.96 758.21 849.77C757.84 849.77 754.65 849.68 750.41 849.36C744.97 848.95 741.04 848.39 740.34 848.3C727.46 846.6 681.17 853.42 676.37 848.58C675.59 847.8 675.03 846.9 675.03 846.9C673.9 844.82 674.45 842.39 671.09 833.06C668.73 826.5 665.66 822.37 660.53 815.15C653.88 805.79 650.42 801.05 643.7 798.14C641.63 797.24 638.51 795.89 634.29 795.9C627.95 795.92 625.68 799.01 616.96 802.02C612.33 803.62 607.54 805.39 601.78 805C594.07 804.48 593.28 801.37 583.3 798.43C571.24 794.88 566.39 798.45 561.52 793.65C555.09 787.32 560.27 772.4 562.84 764.99C566.01 755.85 568.09 756.04 570.1 748.27C570.88 745.26 575.3 728.24 566.8 720.81C564.86 719.11 562.85 718.45 550.96 717.23C526.35 714.71 520.92 716.01 517.3 711.86C515.85 710.2 515.88 704.36 515.98 692.76C516.1 679.7 517.1 677.35 514.66 673.66C510.77 667.76 506.98 665.41 504.1 662.32C500.15 658.09 499.59 652.92 499.15 649.48C498.98 648.19 497.9 638.75 503.19 630.88C510.94 619.34 523.21 624.8 530.27 615.4C537.61 605.64 526.91 596.41 533.66 575.41C534.83 571.77 538.67 559.83 545.17 559.28C548.47 559 550.36 561.85 557.36 569.6C557.36 569.6 566.69 579.93 590.97 602.3C591.37 602.67 592.14 603.39 593.22 604.27C596.69 607.11 600.38 610.12 606.13 612.29C615.25 615.73 630.68 617.56 637.78 610.54C643.07 605.3 640.74 598.74 646.69 596.06C648.53 595.23 650.02 595.56 657.25 596.06C661.3 596.34 664.4 596.71 666.86 597.08C673.48 598.07 674.54 599.01 676.76 598.33C680.34 597.22 682.02 593.41 682.78 591.66C688.3 578.82 685.07 549.31 684.66 530.26C684.24 510.74 684.17 500.44 691.43 495.43C699.85 489.62 709.72 496.83 721.22 489.62C730.49 483.81 728.24 477.38 735.44 472.85C752.33 462.22 778 490.92 795.78 482.21C804.64 477.87 801.22 469.29 816.33 434.88C828.34 407.53 834.34 404.37 838.36 403.18C849.66 399.83 853.61 412.03 872.21 415.44C899.1 420.37 915.96 399.49 930.44 408.99C937.42 413.57 939.57 422.41 939.92 423.83C941.48 430.22 940.24 435.87 937.21 447.05C934.03 458.79 933.09 458.93 933.15 463.18C933.29 473.25 938.71 480.66 939.76 482.05C942.48 485.65 944.14 486.4 947.68 489.81C954.54 496.41 956.81 501.93 961.58 510.27C974.13 532.19 978.24 528.56 980.77 538.61C982.39 545.05 979.83 543.07 977.83 572.84C977.67 575.24 977.16 583.13 977.26 593.48C977.33 600.57 977.38 604.19 978.05 608.01C979.45 616.01 981.31 626.66 987.99 629.61C995.68 633.01 1007.54 625.23 1022.52 615.42C1029.15 611.08 1034.05 607.12 1042.83 605.1C1047.43 604.04 1053.41 602.76 1058.4 605.75C1064.94 609.67 1065.59 618.42 1065.85 621.88C1066.63 632.38 1062.01 636.51 1059.56 645.93C1053.7 668.48 1071.04 680.19 1062.46 692.84C1061.81 693.79 1055.89 697.64 1044.04 705.33L1044.02 705.29Z" fill="white"/>
<g id="detail_incheon">
<path d="M525.51 806.97C524.62 801.28 520.69 801.44 518.74 795.36C512.25 775.13 549.01 752.24 543.45 743.11C539.95 737.36 525.47 746.61 508.92 738.76C495.52 732.4 487.29 717.92 485.05 705.86C483.05 695.07 487.37 694.38 484.88 685.06C480.53 668.71 466.64 668.42 463.21 653.45C460.71 642.52 467.55 640.24 464.56 628.29C461.66 616.68 452.83 609.37 447.63 605.07C441.71 600.17 431.94 592.07 419.87 591.52C398.87 590.57 395.04 613.54 369.09 619.26C345.14 624.53 323.51 609.63 319.66 607C300.96 594.24 294.77 576.51 291.22 566.36C286.27 552.2 286.1 540.35 285.8 519.27C285.6 505.51 286.52 492.4 286.98 485.73C288.43 464.93 290.04 460.87 288.91 448.92C287.74 436.57 284.78 427.88 282.41 420.9C282.41 420.9 277.21 405.83 269.37 396.97C268.52 396.01 267.64 395.16 266.67 394.29C258.61 387.11 255.47 389.98 245.34 383.16C229.77 372.69 232.25 363.07 216.9 351.23C212.81 348.07 203.4 340.82 189.99 339.13C174.39 337.17 162.12 343.86 146.83 352.19C129.27 361.76 118.46 372.65 115.35 375.9C109.01 382.5 97.07 396.43 89.45 417.02C86.64 424.62 68.07 474.84 93 503.62C104.06 516.38 112.72 512.29 132.61 531.68C142.88 541.7 157.52 555.97 153.94 567.97C149.4 583.17 120.54 578.27 113.82 593.61C105.97 611.54 132.04 648.79 160.54 652.15C179.07 654.34 189.45 641.11 214.88 646.34C218 646.98 224.24 648.54 236.72 651.66C258.91 657.21 260.64 658.06 264.14 656.98C277.96 652.73 274.53 632.26 287.5 627.95C300.54 623.62 317.35 639.88 321.02 643.43C327.16 649.37 333.44 657.76 339.3 674.39C351.66 709.44 340.3 719.01 351.49 751.31C358.75 772.26 366.19 775.94 363.17 786.63C357.92 805.17 331.32 808.91 332.19 821.46C332.83 830.56 346.92 830.09 353.01 842.75C361.58 860.56 341.16 877.07 347.93 892.58C348.16 893.11 348.41 893.57 348.75 894.01C357.64 905.32 372.8 908.72 387.3 910.79C395 911.89 398.85 912.43 402.94 912.09C418.65 910.78 428.88 901.05 442.89 888.22C465.83 867.2 477.48 856.53 489.61 846.29C512.56 826.91 527.29 818.38 525.5 806.94L525.51 806.97Z" fill="white"/>
<path d="M250.45 748.43C236.93 756.7 237.16 764.54 227.6 771.65C213.55 782.1 200.45 774.55 169.2 776C150.55 776.87 110.32 778.74 100.65 799.22C94.48 812.29 101.25 831.89 113.35 838.89C123.4 844.71 129.49 837.41 143.31 842.28C162.02 848.87 160.47 865.62 177.84 870.82C189.53 874.32 202.92 870.54 211.36 864.53C226 854.1 219.33 841.52 233.2 827.76C243.55 817.49 252.52 819.3 278.9 809.38C316.51 795.23 319.4 791.92 320.54 789.06C327.02 772.75 304.03 741.88 278.39 740.2C265.31 739.34 254.03 746.24 250.46 748.42L250.45 748.43Z" fill="white"/>
<path d="M42.17 437.39C45.36 436.39 50.19 435.44 53.89 437.68C57.82 440.05 59.48 445.41 58.86 459.69C57.73 485.61 51.38 487.56 54.24 498.73C57.43 511.19 68.56 521.36 74.34 526.64C82.57 534.16 88.1 536.23 88.54 541.81C89.11 549.1 80.5 556.05 73.88 559.14C58.76 566.21 37.46 560.94 25.91 548.84C19.97 542.62 22.98 541.27 12.59 515.68C4.33997 495.36 0.0499694 490.35 1.17997 480.49C2.17997 471.77 10.37 470.21 12.97 457.99C14.41 451.2 13 448.82 15.21 445.26C18.02 440.73 25.08 436.9 42.18 437.39H42.17Z" fill="white"/>
</g>
</g>
</svg>
