<svg width="1030" height="896" viewBox="0 0 1030 896" fill="none" xmlns="http://www.w3.org/2000/svg">

<g id="total_gyeongbug">
<path id="detail_daegu" d="M320.9 683.64C319.43 691.7 313.97 700.05 306.01 703.01C297.47 706.18 293.42 700.39 287.01 704.01C280.04 707.95 278.59 718.3 277.1 728.9C276.08 736.19 275.56 739.84 277.1 743.5C280.83 752.39 290.03 751.08 294.62 759.56C298.18 766.13 297.31 775.52 293.16 781.46C285.84 791.93 267.41 792.95 263.96 793.14C258.95 793.42 256.57 792.82 255.2 794.6C254 796.17 253.29 799.96 266.88 820.88C279.01 839.56 281.95 840.18 282.94 847.16C284.68 859.41 276.91 866.37 281.48 871.98C283.56 874.54 288.2 875.2 297.48 876.54C303.23 877.37 306.69 877.4 313.6 877.82C313.6 877.82 317.96 878.09 332.48 879.42C360.35 881.97 373.28 891.45 377.84 886.58C383.87 880.15 362.06 862.74 360.32 831.1C360.06 826.3 358.52 798.29 377.84 781.46C379.86 779.7 391.66 769.42 407.04 769.78C410.63 769.86 410.63 770.44 430.4 775.62C447.8 780.18 450.99 780.57 455.22 780C464.94 778.69 471.66 773.45 474.2 771.24C481.94 764.5 484.82 756.31 485.88 752.26C488.15 743.61 485.39 741.33 484.42 724.52C483.54 709.34 483.1 701.66 487.34 693.86C489.64 689.63 494.76 685.63 504.86 677.8C521.75 664.71 523.87 665.96 528.02 660.01C536.58 647.75 534.6 632.38 534.06 628.17C533.31 622.35 531.55 617.57 528.02 608.01C524.27 597.85 523.3 597.95 520.02 589.01C518.74 585.51 515.35 575.85 513.02 563.01C510.79 550.72 512.21 550.32 510.02 543.01C507.88 535.85 505.22 526.96 497.02 521.01C486.59 513.43 474.09 515.61 472.02 516.01C463.79 517.58 457.53 522.81 445 533.27C435.46 541.23 433.12 544.81 424.56 549.33C420.89 551.27 416.4 553.59 409.96 555.17C401.5 557.24 397.77 556 391.02 559.01C389.17 559.83 384.7 561.88 381.02 566.01C372.84 575.19 378.44 583.6 371.02 594.01C365.91 601.18 358.38 604.03 355.02 605.01C353.05 605.59 345.33 607.81 336.97 604.81C322.79 599.71 320.96 585.62 312.15 585.83C308.54 585.92 305.85 588.81 300.47 594.59C295.13 600.33 292.21 605.53 287.33 615.03C275 639.05 275.15 641.94 275.65 644.23C277.22 651.45 283.41 657.91 290.25 660.29C300.45 663.84 306.25 656.26 313.61 660.29C320.75 664.2 322.34 675.81 320.91 683.65L320.9 683.64Z" fill="white"/>
<g id="detail_gyeongbug">
<path d="M804.02 681.01C807.06 656.08 829.79 651.43 828.02 631.01C827.4 623.9 823.84 615.1 818.02 608.01C813.42 602.41 811.4 599.22 808.02 599.01C800.02 598.51 797.81 614.4 782.02 629.01C772.58 637.75 758.08 646.21 752.02 642.01C747.36 638.78 751.61 630.79 745.02 622.01C739.8 615.05 734.44 616.5 733.02 612.01C729.88 602.09 754.87 591.62 754.02 577.01C753.97 576.18 753.8 576.43 742.02 561.01C735.55 552.54 734.41 550.95 734.02 548.01C733.02 540.55 738.46 536.66 736.02 532.01C734.01 528.17 729.53 529.33 727.02 526.01C722.98 520.68 729.5 511.03 733.02 502.01C742.37 478.09 726.45 469.3 735.02 447.01C741.6 429.91 752.25 431.74 755.02 416.01C757.62 401.23 748.68 396.97 752.02 381.01C754.84 367.5 762.5 364.53 762.02 354.01C761.59 344.65 754.72 343.41 749.02 332.01C739.91 313.79 744.87 294.13 746.02 290.01C751.39 270.76 762.4 272.27 768.02 254.01C773.08 237.57 768.43 222.41 764.02 208.01C756.12 182.23 747.88 184.04 742.02 162.01C737.03 143.25 743.67 144.42 739.02 108.01C736.59 88.97 734.2 84.12 736.02 72.01C737.74 60.55 741.33 55.31 738.02 49.01C733.37 40.15 722.67 43.64 717.02 34.01C713.01 27.18 717.21 23.39 712.02 12.01C710.6 8.90001 707.13 1.27 702.02 1.01C699.26 0.870005 697.33 2.95001 695.02 5.01C685.28 13.72 682.05 10.3 671.02 19.01C665.04 23.73 659.3 28.27 657.02 36.01C655.45 41.33 657.05 43 655.02 49.01C654.24 51.33 650.94 61.1 644.02 63.01C640.53 63.97 637.08 62.67 626.02 55.01C609.78 43.76 610.46 41.92 603.02 38.01C593.97 33.25 578.68 28.51 571.02 35.01C567.22 38.23 569 41.08 566.02 44.01C555.54 54.29 526.61 25.93 503.02 35.01C487.45 41 488.32 57.87 476.02 59.01C458.44 60.64 447.27 27.06 435.02 30.01C423.28 32.84 428.16 64.98 412.02 71.01C402.03 74.74 388.17 66.92 383.02 64.01C371.35 57.43 365.93 48.94 361.02 51.01C357.17 52.63 359.07 58.46 354.02 63.01C348.46 68.02 341.92 64.76 335.02 67.01C324 70.6 324.34 84.2 316.02 98.01C299.49 125.46 268.98 120.13 265.02 140.01C262.93 150.52 271.14 153.55 270.02 171.01C269.46 179.71 266.45 191.69 260.02 198.01C252.48 205.42 243.02 202.63 198.02 199.01C177.71 197.37 169.06 197.09 162.02 197.01C129.97 196.64 120.46 200.38 116.38 202.21C109.57 205.27 94.37 212.09 90.02 226.01C85.16 241.57 96.17 254.13 91.22 258.35C84.08 264.44 62.01 236.76 43.02 244.01C33.63 247.6 23.39 260.34 19.54 273.14C19.45 273.44 19.38 273.68 19.33 273.86C21.84 276.87 27.2 278.07 31.02 285.02C35.42 293.02 34.43 303.16 30.02 310.02C24.76 318.2 18.16 315.91 11.02 325.02C10.19 326.08 4.25998 333.84 4.01998 344.02C3.67998 358.23 14.83 359.42 17.02 375.02C18.9 388.41 12.95 403.63 9.01998 410.02C8.41998 411 6.11998 414.6 3.99998 419.89C2.71998 423.06 1.18998 426.87 1.01998 430.02C0.60998 437.67 8.24998 440.99 14.02 449.02C23.46 462.17 14.92 469.83 24.02 488.02C27.26 494.49 32.81 504.1 42.02 507.02C49.83 509.49 53.27 501.87 66.02 503.02C75.11 503.84 81 510.01 83.02 512.02C88.6 517.59 95.43 528.51 92.02 537.02C90.85 539.93 89.71 539.51 82.02 547.02C77.32 551.62 72.57 556.26 69.02 562.02C65.12 568.36 64.1 573.75 63.02 578.02C60.83 586.73 53.56 599.83 39.02 626.02C29.92 642.41 28.03 644.7 26.02 652.02C25.11 655.32 22.28 666.56 24.02 681.02C24.73 686.91 27.72 709.19 45.02 726.02C58.63 739.25 75.3 743.5 97.02 749.02C116.26 753.91 120.26 751.78 130.02 758.02C132.63 759.69 140.46 769.49 156.02 789.02C159.78 793.74 165.75 801.43 166.89 812.44C166.92 812.77 166.98 813.34 167.02 814.02C168 830.76 155.76 838.2 157.02 848.02C158.09 856.42 168.63 863.39 177.02 865.02C189.29 867.41 193.64 857.75 210.02 859.02C217.49 859.6 224.29 862.2 229.02 864.02C239.08 867.88 243.23 871.58 251.02 871.02C253.77 870.82 258.71 870.47 262.02 867.02C270.7 857.96 259.7 836.33 259.02 835.02C254.22 825.81 251.27 826.68 245.02 816.02C241.03 809.21 233.21 795.71 238.02 788.02C238.25 787.64 238.5 787.32 238.8 787.01C242.12 783.66 246.27 781.59 259.02 780.02C267.51 778.98 269.98 779.24 274.02 777.02C276.14 775.85 279.05 774.2 280.02 771.02C281.65 765.65 276.39 760.38 276.02 760.02C271.68 755.79 267.83 757.48 264.02 755.02C254.96 749.18 257.46 727.25 263.02 713.02C266.48 704.15 270.5 693.87 280.02 690.02C288.82 686.46 296.32 690.81 302.02 685.02C305.15 681.84 306.88 676.49 305.02 674.02C302.51 670.69 295.4 675.18 286.02 674.02C276.29 672.81 267.87 665.98 264.02 660.02C254.25 644.9 265.9 623.1 275.02 606.02C283.24 590.63 295.78 567.15 312.02 568.02C319.76 568.44 334.38 574.72 338.02 583.02C338.5 584.11 339.8 587.54 343.02 589.02C346.29 590.52 349.67 589.17 350.02 589.02C352.47 587.99 354.28 585.9 356.02 582.02C360.12 572.86 357.3 568.25 360.02 561.02C362.54 554.31 367.88 550.53 370.02 549.02C379.44 542.36 385.53 546.75 401.02 540.02C405.15 538.23 407.96 536.5 412.02 534.02C421.39 528.28 425.68 523.97 433.02 518.02C446.08 507.43 452.62 502.14 462.02 499.02C465.74 497.79 475.88 494.56 488.02 497.02C510.18 501.51 521.6 521.46 523.02 524.02C531.35 539.09 524.39 543.69 533.02 570.02C537.58 583.92 540 584.1 546.02 602.02C551.47 618.25 554.2 626.36 554.02 636.02C553.99 637.6 553.26 660.36 538.02 678.02C533.42 683.35 526.47 689.4 520.02 695.02C509.34 704.33 509.85 702.59 508.02 705.02C498.4 717.79 509.65 731.86 504.02 756.02C502.6 762.12 500.83 769.7 495.02 777.02C482.44 792.87 458.46 798 440.02 796.02C421.89 794.08 414.63 785.85 402.02 791.02C393.37 794.57 388.44 801.86 387.02 804.02C380.84 813.41 380.95 822.87 381.02 829.02C381.16 841.91 385.71 851.24 389.02 858.02C393.94 868.1 397.3 874.99 405.02 880.02C410.99 883.91 419.02 886.32 428.02 889.02C433.19 890.57 434.78 891.03 437.63 892.08C441.83 893.63 442.3 894.16 445.02 894.02C457.34 893.41 458.97 882.01 474.02 879.02C482.52 877.33 485.26 880.33 490.02 877.02C497.07 872.12 493.57 863.81 500.02 859.02C506.58 854.15 517.39 857.41 526.02 860.02C537.56 863.51 539.21 867.41 547.02 867.02C554.23 866.66 559.96 862.99 563.02 861.02C571.64 855.48 570.72 851.64 577.02 849.02C585.76 845.39 591.36 851.19 597.02 848.02C603.83 844.2 595.65 831.72 603.02 822.02C605.81 818.35 609.24 816.9 616.02 814.02C620.33 812.19 629.14 809.04 641.02 809.02C651.82 809 664.4 808.97 673.02 817.02C683.3 826.62 678.96 839.36 689.02 844.02C693.66 846.17 698.33 845.2 704.02 844.02C717.98 841.12 718.96 833.7 729.02 832.02C741.31 829.96 745.78 840.04 759.02 839.02C759.8 838.96 772.4 837.57 780.02 828.02C786.05 820.46 784.67 813.17 786.02 799.02C786.93 789.45 790.3 777.64 797.02 754.02C804.73 726.92 807.7 724.49 808.02 712.02C808.47 694.04 802.43 694.03 804.02 681.02V681.01Z" fill="white"/>
<path d="M840.43 462.57C833.49 472.21 838.3 489.28 848.46 498.71C854.93 504.72 857.18 501.69 880.59 511.47C896.79 518.24 900.67 521.76 906.98 519.97C915.15 517.65 913.72 510.29 924.19 504.02C935.65 497.17 942.86 502.71 949.43 496.58C953.02 493.23 952.52 490.04 952.87 463.63C953.1 446.42 953.36 443.72 950.58 440.24C944.83 433.05 932.51 430.54 923.04 432.8C911.3 435.6 912.18 443.76 900.09 446.62C890.29 448.94 887.5 444.1 873.7 446.62C866.67 447.91 861.39 450.26 857.64 451.94C848.67 455.94 843.56 458.22 840.43 462.57Z" fill="white"/>
<path d="M1015.55 503.04C1009.01 502.37 1007.32 513.67 995.59 517.6C987.84 520.2 983.5 516.96 982.28 519.42C979.84 524.35 994.35 543.41 1011.38 543.98C1014.04 544.07 1020.54 544.29 1024.69 539.43C1029.59 533.69 1027.87 524.75 1027.18 521.23C1026.01 515.18 1021.96 503.7 1015.54 503.03L1015.55 503.04Z" fill="white"/>
</g>
</g>
</svg>
