<svg width="1172" height="872" viewBox="0 0 1172 872" fill="none" xmlns="http://www.w3.org/2000/svg">

<g id="total_gyeongnam">
<g id="detail_gyeongnam">
<path d="M268 28.22C288.56 28.05 300.01 21.57 314 30.22C323.2 35.91 322.02 41.0701 337 58.2201C353.8 77.4601 358.73 74.91 367 88.22C369.25 91.84 379.52 109.14 378 131.22C376.69 150.18 367.8 156.42 372 163.22C377.62 172.33 394.75 162.98 423 167.22C453.52 171.8 454.97 185.94 486 188.22C502.48 189.43 517.29 186.56 524 185.22C547.56 180.51 548.3 174.84 560 174.22C588.38 172.71 592.94 205.53 628 214.22C653.37 220.51 661.54 205.93 694 210.22C721.83 213.9 728.34 236.14 747 232.22C751.08 231.36 752.32 230.15 777 210.22C802.44 189.68 805.08 187.77 810 185.22C819.27 180.41 836.78 171.33 855 177.22C858.47 178.34 868.59 181.62 874 191.22C881.04 203.72 875.22 218.34 874 221.22C868.31 234.58 858.76 235.99 859 244.22C859.24 252.53 869.18 258.51 877 263.22C894.03 273.48 900.91 269.34 916 277.22C933.37 286.29 928.03 293.74 946 304.22C964.44 314.98 974.45 309.69 987 322.22C988.66 323.88 995.72 331.2 999 343.22C999.73 345.89 1006.03 368.96 996 377.22C984.99 386.28 966.56 367.42 945 374.22C932.18 378.26 935.19 386.44 918 401.22C891.7 423.84 872.08 416.71 860 437.22C852.77 449.5 858.45 454.35 851 463.22C836.89 480.03 805.09 461.07 791 477.22C786.95 481.86 789.71 483.16 785 493.22C772.42 520.11 746.15 520.04 743 537.22C740.26 552.15 758.58 560.5 754 570.22C749.28 580.23 724.07 583.64 710 573.22C697.64 564.06 699.9 548.69 690 546.22C679.8 543.67 672.85 558.34 664 556.22C650.79 553.06 657.95 522.96 644 516.22C635.13 511.94 619.55 517.19 616 526.22C607.8 547.11 668.54 576.62 661 598.22C656.35 611.53 626.8 618.87 610 609.22C596.3 601.36 596.73 585.46 586 584.22C576.18 583.09 563.71 595 563 606.22C562.36 616.4 571.77 619.88 572 631.22C572.18 640.07 566.6 645.49 560 654.22C550.81 666.38 529.77 694.24 535 715.22C538.47 729.16 550.3 727.1 556 743.22C561.48 758.72 557.93 781.52 542 793.22C525.69 805.2 499.94 802.93 495 793.22C489.98 783.36 508.03 769.07 502 759.22C497.19 751.36 482.74 755.65 478 747.22C474.77 741.47 482.45 736.18 481 728.22C479.48 719.92 470.87 709.52 461 711.22C452.75 712.64 455.42 727.56 447 731.22C434.67 736.59 420.45 709.69 402 712.22C387.47 714.21 387.73 732.06 372 740.22C346.85 753.27 297.3 733 284 700.22C269.55 664.61 303.85 628.96 290 617.22C279.31 608.16 248.09 620.28 245 635.22C242.74 646.15 256.33 654.74 253 660.22C248.38 667.83 222.05 651.43 198 660.22C182.73 665.8 186.1 680.04 170 687.22C158.39 692.4 140.62 693.2 131 684.22C117.63 671.73 134.16 653.58 123 628.22C121.02 623.73 118.81 617.93 80.9999 579.22C47.6899 545.12 44.8199 544.53 39.9999 534.22C28.8999 510.48 38.9199 502.49 25.9999 480.22C14.4999 460.41 1.2899 457.64 0.999905 443.22C0.789905 432.61 7.8899 431.5 15.9999 412.22C25.7099 389.13 18.3499 384.01 26.9999 369.22C39.2099 348.33 59.5699 348.81 59.9999 336.22C60.4199 323.97 41.2099 321.06 38.9999 304.22C37.3799 291.86 47.0499 288.32 48.9999 274.22C51.9499 252.91 30.1299 244.47 25.9999 222.22C22.4199 202.91 30.6399 195.12 53.9999 142.22C83.0799 76.37 84.0799 57.3501 106 47.2201C118.32 41.5301 126.57 43.5801 143 33.2201C164.5 19.6601 161.46 9.15005 175 3.22005C201.23 -8.26995 218.55 28.63 268 28.22Z" fill="white"/>
<path d="M552 828.22C547.99 843.74 546.05 851.57 549 855.22C553.91 861.28 566.85 861.1 575 855.22C584.71 848.22 585.72 834.49 582 825.22C577.93 815.08 566.71 806.56 560 809.22C558.7 809.74 556.41 811.13 552 828.22Z" fill="white"/>
<path d="M217 734.22C213.53 755.67 210.53 756.21 211 764.22C211.95 780.36 225.27 797.98 240 800.22C251.79 802.01 255.19 792.53 267 793.22C289.29 794.52 310.96 830.3 303 844.22C298.71 851.72 289.21 846.97 268 858.22C253.72 865.79 250.31 872.04 245 870.22C235.4 866.93 242.18 844.99 228 833.22C221.57 827.89 210.2 824.11 201 829.22C191.89 834.28 198.61 848.09 190 855.22C181.02 862.66 161.46 859.28 157 850.22C152.44 840.95 167.25 832.94 165 817.22C162.99 803.2 150.27 803.02 145 786.22C141.29 774.39 142.59 758.49 151 748.22C159.07 738.36 166.92 741.96 175 731.22C183.21 720.32 178.36 712.31 186 706.22C194.49 699.46 211 700.99 217 709.22C218.32 711.03 220.18 714.6 217 734.22Z" fill="white"/>
<path d="M245.62 737.42C240.44 746.79 240.67 760.24 248 767.22C251.98 771.01 258.04 771.46 270 772.22C284.76 773.16 298.52 774.03 301 768.22C302.37 765.02 299.24 760.09 293 750.22C290.9 746.9 288.66 743.4 285 739.22C277.22 730.35 272.17 724.59 265 724.22C256.35 723.77 248.95 731.39 245.62 737.42Z" fill="white"/>
<path d="M672 673.22C665.64 677 657.28 667.7 652 671.22C643.89 676.63 659.04 701.61 650 711.22C640.78 721.01 617.69 702.88 602 714.22C591.4 721.88 591.13 737.95 591 745.22C590.74 760.03 596.39 781.61 608 784.22C619.49 786.8 627.74 768.74 639 772.22C646.23 774.46 651.72 784.66 650 792.22C647.66 802.53 633.46 801.23 630 812.22C627.59 819.88 633.82 822.56 636 840.22C637.54 852.71 634.92 855.4 638 859.22C645.38 868.35 667.38 861.57 675 859.22C680.9 857.4 707.48 849.21 708 836.22C708.33 827.99 697.94 823.97 700 817.22C702.05 810.49 714.18 808.49 716 808.22C725.27 806.82 727.32 810.95 735 809.22C742.6 807.5 749.02 801.55 752 795.22C755.06 788.72 752.19 786.68 755 779.22C758.54 769.84 764.3 769.79 768 762.22C774.08 749.77 766.1 734.34 765 732.22C758.09 718.85 749.73 720.94 740 707.22C732.53 696.67 730.77 686 729 675.22C724.65 648.77 733 639.18 726 632.22C716.37 622.64 687.8 628.12 679 643.22C672.2 654.89 679.19 668.95 672 673.22Z" fill="white"/>
</g>
<path id="detail_ulsan" d="M887 167.22C889.43 176.88 894.91 176.91 898 185.22C902.61 197.61 895.69 211.72 893 217.22C887.1 229.26 880.54 232.12 882 238.22C883.3 243.66 889.72 246.47 896 249.22C903.47 252.49 907.18 252.05 924 255.22C938.71 257.99 940.68 259.23 942 260.22C949.75 266.07 946.5 272.36 954 280.22C961.31 287.89 972.04 289.91 979 291.22C990.18 293.33 993.11 290.75 998 294.22C1003.68 298.25 1002.15 303.44 1007 315.22C1014.27 332.87 1022.36 332.52 1023 343.22C1023.71 354.99 1014.13 358.84 1017 368.22C1019.31 375.77 1027.74 380.58 1034 382.22C1043.76 384.77 1047.29 379.37 1053 382.22C1063.06 387.24 1055.8 405.83 1067 415.22C1074.65 421.64 1087.54 420.92 1096 416.22C1105.27 411.06 1108.3 401.61 1111 393.22C1114.01 383.86 1113.57 378.56 1114 355.22C1114.57 323.7 1115.64 318.15 1120 315.22C1127.39 310.26 1134.81 319.15 1145 315.22C1156.77 310.68 1160.28 293.64 1165 269.22C1167.71 255.17 1170.79 238.67 1170 214.22C1168.94 181.3 1168.41 164.84 1158 152.22C1140.36 130.83 1103.69 123.94 1082 136.22C1068.43 143.91 1064.59 156.92 1057 155.22C1047.8 153.16 1051.91 133.68 1037 117.22C1023.98 102.85 1004.98 100.2 998 99.22C987.14 97.7 977.76 99.54 959 103.22C942.13 106.53 933.69 108.18 926 113.22C915.29 120.24 917.87 124 902 136.22C895.21 141.45 890.71 143.87 888 150.22C884.97 157.34 886.31 164.46 887 167.22Z" fill="white"/>
<g id="detail_busan">
<path d="M1000 406.22C1019.18 406.8 1027.98 396.56 1035 402.22C1040.31 406.5 1036.8 412.96 1044 424.22C1046.11 427.52 1049.13 430.05 1055 435.22C1068.78 447.37 1072.15 446.53 1074 451.22C1077.33 459.64 1067.83 465.84 1061 484.22C1054.68 501.21 1060.31 502.61 1055 518.22C1053.42 522.86 1042.68 552.82 1018 561.22C1003.76 566.07 994.23 560.55 988 568.22C982.62 574.83 989.07 582.57 983 592.22C977.55 600.88 967.48 603.12 967 603.22C955.39 605.62 949.31 597.17 944 600.22C935 605.4 946.14 633.32 939 637.22C931.26 641.45 913.39 611.17 900 615.22C886.81 619.21 891.63 652.36 878 656.22C869.56 658.61 858.48 648.53 853 640.22C841.22 622.36 848.62 602.56 842 600.22C836.59 598.3 831.82 611.61 819 618.22C792.57 631.85 749.59 607.88 751 597.22C752.11 588.87 780.16 590.77 783 578.22C785.48 567.27 765.64 559.18 768 546.22C769.34 538.85 776.33 538.28 789 526.22C804.84 511.14 801.18 505.13 811 498.22C830.6 484.43 850.64 504.51 869 492.22C883.71 482.37 873.71 467.55 891 448.22C904.77 432.84 913.17 439.93 939 419.22C953.74 407.41 956.3 400.85 967 399.22C979.86 397.26 982.9 405.7 1000 406.22Z" fill="white"/>
<path d="M821 628.22C817.61 626.97 816.11 628.96 805 632.22C790.09 636.59 785.4 635.17 783 639.22C780.42 643.56 783.27 649.47 787 657.22C793.03 669.74 798.23 680.55 807 681.22C817.75 682.05 828.15 667.2 830 654.22C831.42 644.24 828.43 630.95 821 628.22Z" fill="white"/>
</g>
</g>
</svg>
