<svg width="1181" height="897" viewBox="0 0 1181 897" fill="none" xmlns="http://www.w3.org/2000/svg">
<g id="total_jeonnam" clip-path="url(#clip0_0_1)">
<g id="detail_jeonnam">
<path d="M234.51 238.59C209.86 234.81 201.22 252.31 178.51 250.59C157.32 248.99 154.83 233 139.51 234.59C115.06 237.13 90.36 281.07 102.51 302.59C110.94 317.52 136.48 320.56 153.51 322.59C173.73 325 182.22 321.02 195.51 328.59C208.94 336.24 209.68 345.66 218.51 345.59C231.4 345.48 244.24 325.29 247.51 317.59C248.01 316.42 249.6 312.44 252.68 307.52C253.54 306.15 255.72 302.78 258.51 299.59C265.9 291.16 270.61 291.96 273.51 287.59C279.41 278.71 270.69 259.25 257.51 248.59C248.48 241.29 238.75 239.24 234.51 238.59Z" fill="white"/>
<path d="M94.51 217.59C97.92 220.41 97.67 228.02 94.51 232.59C91.85 236.45 88.66 235.91 84.08 239.44C79.03 243.33 78.56 247.33 74.51 255.59C68.58 267.69 65.05 274.9 58.51 277.59C50.13 281.04 40.65 275.5 30.51 269.59C29.01 268.71 9.29 257.06 11.51 250.59C13.18 245.73 25.54 248.8 28.51 242.59C31.54 236.27 20.74 228.93 23.51 222.59C26.56 215.62 43.22 216.36 48.51 216.59C62.31 217.2 63.57 221.49 74.51 220.59C85.86 219.66 90.8 214.52 94.51 217.59Z" fill="white"/>
<path d="M26.51 312.59C19.03 317.97 13.51 315.42 8.51 318.59C1.37 323.12 -1.47 337.24 3.51 344.59C7.9 351.07 14.79 346.99 28.51 354.59C39.26 360.54 40.65 366.16 46.51 365.59C54.32 364.83 61.64 353.89 59.51 347.59C58.54 344.71 56.34 345.03 47.51 337.59C41.22 332.29 39.87 330.05 39.51 327.59C38.95 323.79 40.9 320.53 41.51 319.59C44.96 314.32 50.48 314.67 50.51 312.59C50.55 309.63 39.42 304.7 31.51 308.59C29.19 309.73 29.34 310.55 26.51 312.59Z" fill="white"/>
<path d="M192.97 663.15C181.51 671.48 187.09 686.97 178.76 704.17C165.91 730.7 140.25 719.4 121.92 747.53C120.66 749.47 106.23 772.3 111.77 797.92C118.19 827.61 146.85 839.94 155.41 843.63C170.03 849.92 182.27 849.75 192.96 849.49C211.29 849.04 241.08 848.3 257.92 826.05C269.99 810.1 262.22 800.5 278.22 778C287.24 765.31 294.94 761.01 295.47 749.87C295.97 739.54 289.95 730.8 285.32 724.09C281.42 718.43 278.81 716.47 265.02 704.17C253.02 693.47 247.02 688.11 241.68 683.07C224.62 666.97 222.94 663.09 215.29 660.8C212.95 660.1 201.75 656.75 192.96 663.14L192.97 663.15Z" fill="white"/>
<path d="M1136.51 550.59C1134.35 552.02 1133.78 553.5 1130.51 559.59C1122.84 573.87 1121.82 573.47 1121.51 576.59C1120.7 584.84 1128.41 586.25 1129.51 595.59C1131.04 608.6 1119.5 613.33 1121.51 622.59C1124.03 634.17 1146.01 644.9 1161.51 637.59C1171.06 633.08 1174.72 623.34 1176.51 618.59C1177.28 616.54 1183.79 599.23 1175.51 589.59C1170.86 584.18 1166.44 586.88 1160.51 581.59C1150.78 572.91 1160.8 557.02 1152.51 550.59C1148.11 547.18 1140.76 547.78 1136.51 550.59Z" fill="white"/>
<path d="M768.51 742.59C753.83 743.34 749.68 747.66 740.51 744.59C733.15 742.13 733.25 738.47 727.51 737.59C715.48 735.74 698.81 748.94 700.51 760.59C701.73 768.93 711.98 773.85 713.51 774.59C719.16 777.31 722.12 776.31 728.51 777.59C742.07 780.31 742.66 787.61 754.51 791.59C771.74 797.38 788.42 786.01 790.51 784.59C795.35 781.29 801.94 776.8 803.51 768.59C805.06 760.45 801.01 752.19 795.51 747.59C788.32 741.57 778.92 742.06 768.51 742.59Z" fill="white"/>
<path d="M544.51 828.59C536.4 808.75 545.74 799.41 538.51 791.59C530.26 782.66 510.4 786.53 498.51 792.59C480.84 801.61 466.27 822.9 470.51 839.59C474.19 854.07 488.56 851.42 502.51 875.59C507.25 883.8 509.21 890.37 516.51 893.59C526.04 897.79 536.42 892.63 538.51 891.59C549.45 886.15 556.53 874.48 556.51 863.59C556.51 860.31 555.51 857.07 553.51 850.59C550.09 839.48 546.88 834.39 544.51 828.59Z" fill="white"/>
<path d="M612.51 792.59C609.59 788.51 602.26 792.7 590.51 790.59C579.9 788.69 577.83 783.84 573.51 785.59C566.69 788.35 562.4 804.25 569.51 813.59C576.62 822.93 591.43 820.83 599.51 816.59C601.13 815.74 610.32 810.69 612.51 800.59C613.16 797.57 614.03 794.72 612.51 792.59Z" fill="white"/>
<path d="M621.51 843.59C608.48 833.3 593.23 831.76 584.51 838.59C579.09 842.84 574.8 851.42 577.51 857.59C580.86 865.22 594.04 866.88 602.51 864.59C607.82 863.15 607.79 861.11 612.51 860.59C621.85 859.56 626.37 867.08 631.51 864.59C634.99 862.91 636.27 857.54 635.51 853.59C634.39 847.81 628.56 843.31 621.51 843.59Z" fill="white"/>
<path d="M650.51 787.59C648.02 787.13 646.79 797.9 637.51 801.59C632.72 803.49 629.67 801.96 627.51 804.59C624.76 807.94 626.31 814.58 629.51 818.59C633.57 823.68 641.34 825.87 646.51 823.59C658.79 818.17 654.56 788.34 650.51 787.59Z" fill="white"/>
<path fill-rule="evenodd" clip-rule="evenodd" d="M528.959 8.75545C538.282 2.59959 551.278 -0.374436 564.041 0.0367028C576.602 0.44134 589.099 4.1314 597.759 11.4849L598.169 11.8375L598.899 12.4947C600.581 14.0454 602.103 15.7184 603.596 17.4215C605.313 19.3807 606.978 21.3624 608.848 23.3189C612.56 27.2027 617.02 30.9193 623.881 33.6617C628.985 35.7015 634.681 37.9531 641.311 36.6099C648.226 35.2081 651.696 30.7889 655.321 25.8014C658.92 20.8496 662.674 15.3176 670.175 12.648C675.959 10.5935 682.842 10.6316 688.949 12.3072C695.042 13.9791 700.531 17.3307 703.368 22.0777C706.801 27.8237 704.959 33.3287 703.244 38.94C701.506 44.627 699.77 50.6941 702.452 58.2564C704.6 64.312 708.103 67.1798 711.513 70.1051C714.847 72.9655 718.107 75.8962 719.377 81.8238L719.493 82.4078C720.535 88.0288 719.018 91.7945 717.433 95.6285C715.863 99.4227 714.201 103.339 714.509 109.541C714.703 113.484 715.701 118.378 717.614 122.88C719.531 127.393 722.324 131.412 726.041 133.743C729.555 135.946 733.115 136.151 737.09 135.112C741.124 134.057 745.507 131.742 750.6 128.954C760.722 123.411 773.343 116.171 790.418 114.594C808.922 112.887 820.916 118.914 832.009 124.292C843.076 129.657 853.187 134.343 868.27 130.62L869.312 130.351C879.904 127.5 885.094 122.307 890.624 116.719C896.384 110.899 902.486 104.679 915.207 100.637C926.719 96.9809 940.905 95.9747 954.725 98.275C968.544 100.575 982.071 106.195 992.2 115.867C1008.13 131.069 1009.9 150.801 1011.87 169.18C1013.85 187.685 1016.03 204.745 1032.08 215.766L1032.72 216.203C1039.4 220.625 1045.95 222.389 1052.1 224.835C1058.43 227.351 1064.16 230.552 1068.38 238.102L1068.73 238.745C1072.24 245.365 1072.36 251.251 1072.61 256.82C1072.87 262.559 1073.25 267.99 1077.34 274.03C1081.27 279.836 1085.84 282.105 1090.99 283.99C1096.15 285.875 1102.04 287.405 1108.1 291.78C1119.43 299.97 1126.44 314.508 1129.17 330.785C1131.9 347.08 1130.36 365.271 1124.45 380.944C1119.67 393.605 1111.25 406.679 1100.66 416.752C1090.06 426.819 1077.21 433.965 1063.56 434.589C1053.63 435.045 1045.01 431.965 1038.36 429.605C1035 428.411 1032.21 427.43 1029.94 427.098C1027.7 426.77 1026.25 427.116 1025.26 428.247L1025.26 428.248C1024.42 429.22 1023.98 430.69 1024 432.606C1024.03 434.515 1024.51 436.762 1025.39 439.148C1027.13 443.921 1030.37 449.071 1034.21 452.88C1043.75 462.334 1056.67 463.19 1064.56 463.591L1065.85 463.645C1079.05 464.077 1088.01 460.767 1095.69 458.055C1103.62 455.257 1110.4 453.002 1118.91 456.672L1119.33 456.86C1128.23 460.88 1135.03 469.693 1136.5 478.423L1136.61 479.199C1137.11 483.006 1136.38 485.804 1135.04 489.075C1133.62 492.553 1131.58 496.452 1129.46 502.903C1126.24 512.708 1126.09 518.502 1125.95 524.301C1125.82 529.997 1125.7 535.707 1122.75 544.993L1122.46 545.903C1120.41 552.129 1118.43 558.172 1115.79 563.053C1113.14 567.948 1109.76 571.819 1104.84 573.535C1099.58 575.37 1095.25 573.781 1090.41 572.153C1085.7 570.569 1080.26 568.835 1072.38 569.512L1071.61 569.585C1068.37 569.921 1065.08 570.266 1062.05 571.083C1059.03 571.896 1056.32 573.162 1054.22 575.293C1050.97 578.583 1049.99 583.098 1050.28 588.429C1050.58 593.773 1052.14 599.756 1053.8 605.818C1055.44 611.828 1057.18 617.927 1057.72 623.335C1058.24 628.569 1057.66 633.402 1054.54 636.94L1054.24 637.279C1051.77 639.873 1048.37 641.174 1044.61 641.635C1040.85 642.097 1036.67 641.732 1032.52 640.927C1024.22 639.317 1015.89 635.906 1011.06 633.484C1008.58 632.237 1001.01 628.229 993.783 621.72C986.571 615.222 979.589 606.123 978.515 594.684C977.367 582.479 983.512 573.456 988.977 565.442C994.533 557.296 999.22 550.369 996.556 541.89C994.891 536.604 991.367 534.818 986.559 532.115C981.89 529.49 976.328 526.128 971.153 517.917L970.654 517.107C965.091 507.887 962.383 498.303 960.415 491.092C959.422 487.454 958.635 484.493 957.775 482.418C957.346 481.382 956.929 480.648 956.518 480.183C956.122 479.737 955.79 479.599 955.481 479.59C955.115 479.581 954.736 479.757 954.208 480.599C953.668 481.46 953.181 482.681 952.494 484.255C951.158 487.318 949.227 491.297 945.11 494.39C938.594 499.283 930.549 498.998 924.003 498.349C920.656 498.018 917.776 497.601 915.473 497.621C913.122 497.641 911.91 498.125 911.385 499.075C910.935 499.887 911.06 500.897 911.919 502.437C912.778 503.977 914.164 505.686 915.713 507.771C918.731 511.833 922.171 517.073 921.505 523.691C921.037 528.349 918.784 531.074 916.488 533.874C914.206 536.657 911.797 539.598 910.479 544.835C907.986 554.752 911.761 563.624 912.431 565.199C915.842 573.198 921.556 576.465 928.752 579.803C935.949 583.143 944.59 586.531 953.206 594.872C956.009 597.584 972.509 614.059 972.51 637.589C972.515 646.847 969.963 657.061 965.38 665.582C960.803 674.089 954.125 681.044 945.798 683.548C938.257 685.815 931.317 683.831 925.787 682.098C922.972 681.216 920.603 680.426 918.595 680.172C916.748 679.94 915.421 680.19 914.426 681.093L914.231 681.283C913.132 682.429 912.912 683.993 913.371 686.248C913.835 688.528 914.926 691.204 916.109 694.366C918.437 700.583 920.997 708.369 918.469 716.876C917.856 718.938 917.099 720.522 915.926 722.031C914.769 723.518 913.237 724.896 911.144 726.58C906.938 729.965 900.329 734.7 889.164 744.347C884.301 748.547 880.495 752.019 877.364 754.899C874.24 757.773 871.763 760.079 869.585 761.919C865.458 765.406 862.322 767.285 857.66 768.365L856.707 768.571C844.188 771.089 833.373 766.161 830.059 764.483C819.076 758.924 815.678 750.115 812.56 741.847C809.432 733.552 806.602 725.882 797.092 721.499C785.859 716.323 774.561 716.785 764.213 716.721C753.973 716.658 744.496 716.085 737.752 708.243C732.109 701.673 730.213 692.159 731.524 684.423C733.599 672.189 743.252 666.905 754.385 661.192C765.613 655.431 778.651 649.114 788.695 635.01L789.123 634.403C797.992 621.636 800.379 608.35 802.238 597.565C803.175 592.128 803.993 587.224 805.49 583.441C807.008 579.607 809.292 576.751 813.236 575.628C816.768 574.624 820.176 575.425 823.375 576.988C826.557 578.542 829.641 580.905 832.553 583.16C835.507 585.448 838.269 587.612 840.926 588.94C843.563 590.258 845.906 590.656 848.103 589.677C850.419 588.646 852.277 586.223 853.61 582.888C854.934 579.577 855.676 575.516 855.858 571.467C856.041 567.419 855.661 563.448 854.789 560.324C854.353 558.762 853.802 557.445 853.162 556.443C852.6 555.563 851.998 554.971 851.386 554.639L851.123 554.512C850.227 554.136 849.282 554.295 848.038 554.994C846.76 555.712 845.403 556.86 843.73 558.184C840.574 560.682 836.537 563.589 831.017 563.598L830.477 563.589C823.9 563.374 819.84 559.19 816.473 555.44C814.752 553.525 813.245 551.758 811.623 550.471C810.032 549.209 808.432 548.494 806.561 548.589C804.05 548.716 802.096 550.259 800.208 553.095C798.306 555.952 796.626 559.88 794.578 564.421C790.521 573.419 785.158 584.495 774.092 592.404C768.903 596.111 765.566 596.898 761.141 597.64C757.084 598.32 752.076 598.973 743.595 601.912L741.852 602.53C737.76 604.015 726.475 608.12 714.535 615.507C702.583 622.902 690.072 633.527 683.419 648.007C679.851 655.768 679.795 660.641 680.173 666.449C680.557 672.346 681.398 679.228 679.497 690.753C677.118 705.176 670.976 723.656 660.559 739.758C650.141 755.86 635.385 769.674 615.752 774.561C606.872 776.772 595.313 777.574 584.147 775.65C572.985 773.727 562.11 769.058 554.742 760.231C548.612 752.887 545.808 743.73 544.781 734.125C543.755 724.523 544.497 714.394 545.521 705.044C546.552 695.638 547.853 687.103 548.002 680.483C548.076 677.18 547.858 674.458 547.219 672.41C546.626 670.511 545.705 669.282 544.393 668.635L544.125 668.513C542.485 667.829 540.593 668.111 538.719 668.844C537.323 669.391 536.033 670.15 535.002 670.809L534.063 671.423C528.778 674.934 526.265 680.155 525.177 686.599C524.082 693.085 524.45 700.679 524.844 708.817C525.625 724.949 526.526 743.145 515.291 757.214C507.022 767.567 496.818 769.87 487.186 772.464C477.549 775.06 468.397 777.949 461.356 789.124C456.395 797.004 456.173 803.135 455.839 809.643C455.501 816.222 455.045 823.124 449.355 832.125C443.214 841.84 433.584 849.891 423.447 854.669C413.337 859.435 402.537 861.026 394.125 857.513C390.97 856.196 389.251 854.608 386.635 851.247C385.345 849.589 383.805 847.461 381.761 844.704C379.709 841.937 377.127 838.508 373.726 834.211C365.215 823.457 360.253 818.238 356.792 814.71C353.324 811.174 351.261 809.24 348.664 805.124C340.015 791.425 341.566 779.205 343.799 767.058C346.036 754.887 348.922 742.863 343.576 728.949C341.656 723.95 339.469 720.708 336.6 718.062C333.701 715.389 330.066 713.286 325.141 710.612C315.296 705.268 300.695 697.847 277.881 679.368C258.65 663.791 247.083 651.23 236.482 641.584C225.876 631.931 216.112 625.062 200.236 620.552C191.691 618.126 186.525 617.843 182.184 617.438C177.771 617.026 174.181 616.481 169.005 613.454C159.44 607.862 152.381 598.448 147.435 587.476C142.485 576.499 139.618 563.894 138.476 551.808C137.334 539.725 137.911 528.104 139.89 519.086C140.878 514.58 142.226 510.683 143.912 507.694C145.59 504.721 147.671 502.529 150.179 501.647C153.211 500.581 156.517 501.541 159.863 503.65C163.225 505.769 166.817 509.163 170.544 513.341C178.001 521.702 186.195 533.431 194.374 545.04C202.578 556.684 210.769 568.207 218.274 576.28C222.029 580.318 225.561 583.436 228.788 585.275C232.017 587.115 234.785 587.593 237.142 586.661C238.9 585.966 240.54 584.448 241.928 582.298C243.31 580.157 244.401 577.453 245.088 574.507C246.469 568.588 246.179 561.899 243.626 557.057C240.655 551.429 235.083 549.157 229.617 547.08C226.94 546.062 224.244 545.073 222.094 543.72C219.907 542.345 218.177 540.529 217.537 537.82C216.534 533.569 218.534 528.496 221.86 524.342C225.212 520.158 230.103 516.652 235.313 515.61C240.324 514.61 243.913 516.246 248.792 518.84C253.518 521.354 259.634 524.877 269.822 528.308L270.821 528.64L274.046 529.691C281.108 531.968 285.15 533.006 290.432 532.593L291.093 532.535C297.933 531.85 305.126 528.892 310.588 524.956C313.403 522.927 315.723 520.663 317.294 518.359C318.868 516.05 319.648 513.763 319.512 511.655C319.328 508.787 317.462 506.652 314.247 504.717C311.015 502.772 306.687 501.186 301.961 499.306C292.657 495.606 281.951 490.834 277.582 479.963C273.75 470.428 276.779 461.139 279.501 453.359C280.883 449.409 282.168 445.9 282.607 442.799C283.04 439.745 282.624 437.272 280.775 435.268C278.066 432.335 272.9 431.089 267.262 431.648C261.662 432.203 255.913 434.517 252.226 438.29C248.357 442.247 247.799 446.734 247.553 451.166C247.431 453.347 247.383 455.6 246.995 457.636C246.6 459.708 245.838 461.671 244.219 463.296C242.125 465.398 239.096 466.443 235.564 466.737C232.027 467.031 227.881 466.581 223.414 465.588C214.476 463.602 204.068 459.398 194.303 454.307C184.536 449.216 175.35 443.206 168.865 437.569C165.627 434.754 163.023 431.999 161.362 429.465C159.73 426.975 158.864 424.473 159.557 422.288C160.166 420.368 161.843 419.115 163.959 418.269C166.087 417.418 168.854 416.898 171.99 416.559C178.258 415.882 186.351 415.9 194.439 415.666C202.582 415.429 210.754 414.937 217.366 413.27C224.014 411.594 228.783 408.808 230.579 404.225C231.515 401.836 231.482 399.373 230.941 396.813C230.396 394.231 229.356 391.636 228.33 388.965C226.339 383.782 224.295 378.147 227.676 373.039C231.058 367.927 236.781 367.674 242.457 367.321C248.282 366.958 254.426 366.518 259.857 361.833C265.746 356.757 266.44 350.453 267.112 343.668C267.779 336.945 268.424 329.743 274.834 323.854C280.776 318.395 287.49 317.908 293.724 317.345C300.007 316.778 305.815 316.137 310.785 310.902L311.153 310.504C314.89 306.354 316.552 301.143 317.242 296.568C317.953 291.855 317.617 287.908 317.514 286.675C316.32 272.741 307.465 265.259 296.136 256.353C285.021 247.616 271.711 237.63 262.072 218.936L261.616 218.039C258.802 212.42 248.499 191.252 252.522 166.43C254.264 155.677 257.989 148.6 263.573 140.933C266.349 137.123 269.599 133.145 273.276 128.518C276.961 123.881 281.1 118.56 285.691 112.016C303.719 86.3167 311.814 65.867 318.108 51.2877C321.247 44.019 323.977 38.1093 327.308 33.7828C330.678 29.4043 334.684 26.6162 340.334 25.606L341.074 25.4849C348.745 24.3562 357.025 26.8271 364.315 31.1637C371.849 35.6448 378.448 42.1895 382.378 49.0953C387.687 58.417 387.488 67.297 387.481 75.3121C387.475 83.3728 387.671 90.4815 393.266 96.9351C397.286 101.578 402.591 104.026 408.059 105.421C412.176 106.472 416.322 106.913 420.045 107.26L423.61 107.595C444.504 109.707 462.664 101.291 475.829 92.0514C488.988 82.8156 497.057 72.825 497.723 71.9742L497.724 71.9732C508.961 57.6464 511.479 45.5162 513.78 35.1324C516.089 24.7149 518.209 15.8531 528.959 8.75545ZM656.031 134.737C637.668 123.544 612.992 124.52 596.168 130.651C585.113 134.677 579.006 140.425 573.375 145.234C567.774 150.017 562.655 153.869 553.432 154.593C544.19 155.323 538.023 152.702 532.362 150.293C526.699 147.882 521.394 145.602 514.238 147.628C507.404 149.563 504.865 155.032 502.053 160.761C499.301 166.368 496.188 172.518 488.729 177.278L487.994 177.734C482.268 181.19 477.921 181.544 473.476 181.581C469.129 181.617 464.555 181.333 458.721 183.445L458.152 183.657C446.194 188.249 436.853 199.902 430.98 214.104C425.098 228.328 422.621 245.275 424.518 260.712C427.027 281.128 438.354 308.252 461.067 319.487C470.083 323.944 476.833 323.88 483.039 324.012C489.176 324.143 494.785 324.462 501.941 329.413L502.8 330.024C511.474 336.388 514.301 344.24 517.178 352.024C520.146 360.057 523.181 368.058 533.029 373.466C540.492 377.566 548.706 378.447 555.792 378.079C562.882 377.71 568.91 376.088 572.056 375.116L572.06 375.115C572.479 374.984 572.903 374.847 573.231 374.74C573.467 374.663 573.704 374.582 573.833 374.535L573.834 374.537C587.062 370.016 595.053 362.238 597.176 360.336L597.177 360.337C602.232 355.821 609.627 352.958 618.435 350.936C627.231 348.917 637.3 347.765 647.624 346.584L649.006 346.431C663.103 344.93 671.65 345.7 678.779 346.026C686.202 346.366 692.109 346.222 700.898 342.512C706.309 340.234 719.56 334.548 728.347 321.138C730.694 317.555 732.324 312.916 733.818 306.487C735.314 300.055 736.694 291.736 738.497 280.753C741.309 263.583 742.754 254.851 742.51 247.557C742.158 236.965 741.868 219.17 730.784 206.514L730.248 205.916C725.666 200.91 721.542 198.988 716.952 197.368C712.397 195.759 707.487 194.469 701.011 190.724C687.165 182.716 682.187 172.714 677.572 162.681C672.946 152.625 668.653 142.43 656.031 134.737Z" fill="white"/>
</g>
<path id="detail_gwangju" d="M495.041 202.59C484.351 208.54 477.791 200.6 467.041 205.59C449.161 213.89 440.831 243.87 447.041 267.59C448.161 271.85 453.221 291.21 470.041 300.59C486.521 309.78 496.051 299.24 512.041 306.59C535.461 317.36 528.791 346.31 548.041 353.59C562.431 359.03 568.451 343.72 613.041 330.59C627.471 326.34 641.521 322.2 661.041 320.59C685.111 318.6 691.221 322.63 700.041 316.59C712.691 307.93 714.031 290.15 716.041 263.59C717.731 241.17 718.741 227.88 710.041 219.59C701.421 211.38 691.831 216.21 680.041 205.59C674.151 200.28 674.961 197.64 667.041 184.59C656.101 166.56 649.501 155.67 638.041 151.59C627.611 147.87 617.641 151.41 603.041 156.59C582.771 163.78 583.861 169.67 570.041 173.59C543.831 181.02 529.651 162.76 515.041 172.59C503.261 180.52 508.421 195.14 495.041 202.59Z" fill="white"/>
</g>
<defs>
<clipPath id="clip0_0_1">
<rect width="1180.67" height="896.21" fill="white"/>
</clipPath>
</defs>
</svg>
